<?xml version="1.0" encoding="UTF-8" standalone="no"?>
<!DOCTYPE svg PUBLIC "-//W3C//DTD SVG 1.1//EN"
 "http://www.w3.org/Graphics/SVG/1.1/DTD/svg11.dtd">
<!-- Generated by graphviz version 2.47.0 (20210316.0004)
 -->
<!-- Title: dependencies Pages: 1 -->
<svg width="504pt" height="284pt"
 viewBox="0.00 0.00 504.00 284.00" xmlns="http://www.w3.org/2000/svg" xmlns:xlink="http://www.w3.org/1999/xlink">
<g id="graph0" class="graph" transform="scale(1 1) rotate(0) translate(4 280)">
<title>dependencies</title>
<polygon fill="white" stroke="transparent" points="-4,4 -4,-280 500,-280 500,4 -4,4"/>
<text text-anchor="start" x="227.01" y="-42.4" font-family="sans-serif" font-weight="bold" font-size="14.00">Legend</text>
<polygon fill="#ffffb3" stroke="transparent" points="14,-10 14,-30 34,-30 34,-10 14,-10"/>
<text text-anchor="start" x="37.63" y="-15.4" font-family="sans-serif" font-size="14.00"> &#160;Declarations</text>
<polygon fill="#8dd3c7" stroke="transparent" points="127,-10 127,-30 147,-30 147,-10 127,-10"/>
<text text-anchor="start" x="150.73" y="-15.4" font-family="sans-serif" font-size="14.00"> &#160;Module</text>
<polygon fill="#80b1d3" stroke="transparent" points="213,-10 213,-30 233,-30 233,-10 213,-10"/>
<text text-anchor="start" x="236.78" y="-15.4" font-family="sans-serif" font-size="14.00"> &#160;Bootstrap</text>
<polygon fill="#fdb462" stroke="transparent" points="310,-10 310,-30 330,-30 330,-10 310,-10"/>
<text text-anchor="start" x="333.67" y="-15.4" font-family="sans-serif" font-size="14.00"> &#160;Providers</text>
<polygon fill="#fb8072" stroke="transparent" points="406,-10 406,-30 426,-30 426,-10 406,-10"/>
<text text-anchor="start" x="429.73" y="-15.4" font-family="sans-serif" font-size="14.00"> &#160;Exports</text>
<g id="clust1" class="cluster">
<title>cluster_SlickModule</title>
<polygon fill="none" stroke="black" stroke-dasharray="1,5" points="103,-70 103,-268 393,-268 393,-70 103,-70"/>
</g>
<g id="clust6" class="cluster">
<title>cluster_SlickModule_exports</title>
<polygon fill="none" stroke="black" points="111,-208 111,-260 385,-260 385,-208 111,-208"/>
</g>
<g id="clust2" class="cluster">
<title>cluster_SlickModule_declarations</title>
<polygon fill="none" stroke="black" points="115,-78 115,-130 381,-130 381,-78 115,-78"/>
</g>
<!-- SlickComponent -->
<g id="node1" class="node">
<title>SlickComponent</title>
<polygon fill="#ffffb3" stroke="black" points="373.11,-122 262.89,-122 262.89,-86 373.11,-86 373.11,-122"/>
<text text-anchor="middle" x="318" y="-99.8" font-family="Times,serif" font-size="14.00">SlickComponent</text>
</g>
<!-- SlickModule -->
<g id="node3" class="node">
<title>SlickModule</title>
<polygon fill="#8dd3c7" stroke="black" points="229.33,-187 226.33,-191 205.33,-191 202.33,-187 140.67,-187 140.67,-151 229.33,-151 229.33,-187"/>
<text text-anchor="middle" x="185" y="-164.8" font-family="Times,serif" font-size="14.00">SlickModule</text>
</g>
<!-- SlickComponent&#45;&gt;SlickModule -->
<g id="edge1" class="edge">
<title>SlickComponent&#45;&gt;SlickModule</title>
<path fill="none" stroke="black" d="M336.44,-122.02C336.44,-139.37 336.44,-163 336.44,-163 336.44,-163 239.21,-163 239.21,-163"/>
<polygon fill="black" stroke="black" points="239.21,-159.5 229.21,-163 239.21,-166.5 239.21,-159.5"/>
</g>
<!-- SlickItemDirective -->
<g id="node2" class="node">
<title>SlickItemDirective</title>
<polygon fill="#ffffb3" stroke="black" points="245.02,-122 122.98,-122 122.98,-86 245.02,-86 245.02,-122"/>
<text text-anchor="middle" x="184" y="-99.8" font-family="Times,serif" font-size="14.00">SlickItemDirective</text>
</g>
<!-- SlickItemDirective&#45;&gt;SlickModule -->
<g id="edge2" class="edge">
<title>SlickItemDirective&#45;&gt;SlickModule</title>
<path fill="none" stroke="black" d="M185,-122.11C185,-122.11 185,-140.99 185,-140.99"/>
<polygon fill="black" stroke="black" points="181.5,-140.99 185,-150.99 188.5,-140.99 181.5,-140.99"/>
</g>
<!-- SlickComponent  -->
<g id="node4" class="node">
<title>SlickComponent </title>
<polygon fill="#fb8072" stroke="black" points="376.61,-252 263.39,-252 263.39,-216 376.61,-216 376.61,-252"/>
<text text-anchor="middle" x="320" y="-229.8" font-family="Times,serif" font-size="14.00">SlickComponent </text>
</g>
<!-- SlickModule&#45;&gt;SlickComponent  -->
<g id="edge3" class="edge">
<title>SlickModule&#45;&gt;SlickComponent </title>
<path fill="none" stroke="black" stroke-dasharray="5,2" d="M229.39,-175C261.7,-175 299.81,-175 299.81,-175 299.81,-175 299.81,-205.98 299.81,-205.98"/>
<polygon fill="black" stroke="black" points="296.31,-205.98 299.81,-215.98 303.31,-205.98 296.31,-205.98"/>
</g>
<!-- SlickItemDirective  -->
<g id="node5" class="node">
<title>SlickItemDirective </title>
<polygon fill="#fb8072" stroke="black" points="245.02,-252 118.98,-252 118.98,-216 245.02,-216 245.02,-252"/>
<text text-anchor="middle" x="182" y="-229.8" font-family="Times,serif" font-size="14.00">SlickItemDirective </text>
</g>
<!-- SlickModule&#45;&gt;SlickItemDirective  -->
<g id="edge4" class="edge">
<title>SlickModule&#45;&gt;SlickItemDirective </title>
<path fill="none" stroke="black" stroke-dasharray="5,2" d="M185,-187.11C185,-187.11 185,-205.99 185,-205.99"/>
<polygon fill="black" stroke="black" points="181.5,-205.99 185,-215.99 188.5,-205.99 181.5,-205.99"/>
</g>
</g>
</svg>
