<?xml version="1.0" encoding="UTF-8" standalone="no"?>
<!DOCTYPE svg PUBLIC "-//W3C//DTD SVG 1.1//EN"
 "http://www.w3.org/Graphics/SVG/1.1/DTD/svg11.dtd">
<!-- Generated by graphviz version 2.47.0 (20210316.0004)
 -->
<!-- Title: dependencies Pages: 1 -->
<svg width="846pt" height="290pt"
 viewBox="0.00 0.00 846.00 290.00" xmlns="http://www.w3.org/2000/svg" xmlns:xlink="http://www.w3.org/1999/xlink">
<g id="graph0" class="graph" transform="scale(1 1) rotate(0) translate(4 286)">
<title>dependencies</title>
<polygon fill="white" stroke="transparent" points="-4,4 -4,-286 842,-286 842,4 -4,4"/>
<text text-anchor="start" x="398.01" y="-42.4" font-family="sans-serif" font-weight="bold" font-size="14.00">Legend</text>
<polygon fill="#ffffb3" stroke="transparent" points="185,-10 185,-30 205,-30 205,-10 185,-10"/>
<text text-anchor="start" x="208.63" y="-15.4" font-family="sans-serif" font-size="14.00"> &#160;Declarations</text>
<polygon fill="#8dd3c7" stroke="transparent" points="298,-10 298,-30 318,-30 318,-10 298,-10"/>
<text text-anchor="start" x="321.73" y="-15.4" font-family="sans-serif" font-size="14.00"> &#160;Module</text>
<polygon fill="#80b1d3" stroke="transparent" points="384,-10 384,-30 404,-30 404,-10 384,-10"/>
<text text-anchor="start" x="407.78" y="-15.4" font-family="sans-serif" font-size="14.00"> &#160;Bootstrap</text>
<polygon fill="#fdb462" stroke="transparent" points="481,-10 481,-30 501,-30 501,-10 481,-10"/>
<text text-anchor="start" x="504.67" y="-15.4" font-family="sans-serif" font-size="14.00"> &#160;Providers</text>
<polygon fill="#fb8072" stroke="transparent" points="577,-10 577,-30 597,-30 597,-10 577,-10"/>
<text text-anchor="start" x="600.73" y="-15.4" font-family="sans-serif" font-size="14.00"> &#160;Exports</text>
<g id="clust1" class="cluster">
<title>cluster_AppModule</title>
<polygon fill="none" stroke="black" stroke-dasharray="1,5" points="8,-70 8,-274 258,-274 258,-70 8,-70"/>
</g>
<g id="clust2" class="cluster">
<title>cluster_AppModule_declarations</title>
<polygon fill="none" stroke="black" points="16,-78 16,-130 138,-130 138,-78 16,-78"/>
</g>
<g id="clust4" class="cluster">
<title>cluster_AppModule_imports</title>
<polygon fill="none" stroke="black" points="146,-78 146,-130 250,-130 250,-78 146,-78"/>
</g>
<g id="clust6" class="cluster">
<title>cluster_AppModule_bootstrap</title>
<polygon fill="none" stroke="black" points="71,-214 71,-266 195,-266 195,-214 71,-214"/>
</g>
<g id="clust8" class="cluster">
<title>cluster_SlickModule</title>
<polygon fill="none" stroke="black" stroke-dasharray="1,5" points="266,-138 266,-206 830,-206 830,-138 266,-138"/>
</g>
<g id="clust9" class="cluster">
<title>cluster_SlickModule_declarations</title>
<polygon fill="none" stroke="black" points="556,-146 556,-198 822,-198 822,-146 556,-146"/>
</g>
<g id="clust13" class="cluster">
<title>cluster_SlickModule_exports</title>
<polygon fill="none" stroke="black" points="274,-146 274,-198 548,-198 548,-146 274,-146"/>
</g>
<!-- AppComponent -->
<g id="node1" class="node">
<title>AppComponent</title>
<polygon fill="#ffffb3" stroke="black" points="129.94,-122 24.06,-122 24.06,-86 129.94,-86 129.94,-122"/>
<text text-anchor="middle" x="77" y="-99.8" font-family="Times,serif" font-size="14.00">AppComponent</text>
</g>
<!-- AppModule -->
<g id="node2" class="node">
<title>AppModule</title>
<polygon fill="#8dd3c7" stroke="black" points="174.66,-190 171.66,-194 150.66,-194 147.66,-190 91.34,-190 91.34,-154 174.66,-154 174.66,-190"/>
<text text-anchor="middle" x="133" y="-167.8" font-family="Times,serif" font-size="14.00">AppModule</text>
</g>
<!-- AppComponent&#45;&gt;AppModule -->
<g id="edge1" class="edge">
<title>AppComponent&#45;&gt;AppModule</title>
<path fill="none" stroke="black" d="M110.45,-122.22C110.45,-122.22 110.45,-143.73 110.45,-143.73"/>
<polygon fill="black" stroke="black" points="106.95,-143.73 110.45,-153.73 113.95,-143.73 106.95,-143.73"/>
</g>
<!-- AppComponent  -->
<g id="node4" class="node">
<title>AppComponent </title>
<polygon fill="#80b1d3" stroke="black" points="187.44,-258 78.56,-258 78.56,-222 187.44,-222 187.44,-258"/>
<text text-anchor="middle" x="133" y="-235.8" font-family="Times,serif" font-size="14.00">AppComponent </text>
</g>
<!-- AppModule&#45;&gt;AppComponent  -->
<g id="edge3" class="edge">
<title>AppModule&#45;&gt;AppComponent </title>
<path fill="none" stroke="black" stroke-dasharray="1,5" d="M133,-190.22C133,-190.22 133,-211.73 133,-211.73"/>
<polygon fill="black" stroke="black" points="129.5,-211.73 133,-221.73 136.5,-211.73 129.5,-211.73"/>
</g>
<!-- SlickModule -->
<g id="node3" class="node">
<title>SlickModule</title>
<polygon fill="#8dd3c7" stroke="black" points="242.33,-122 239.33,-126 218.33,-126 215.33,-122 153.67,-122 153.67,-86 242.33,-86 242.33,-122"/>
<text text-anchor="middle" x="198" y="-99.8" font-family="Times,serif" font-size="14.00">SlickModule</text>
</g>
<!-- SlickModule&#45;&gt;AppModule -->
<g id="edge2" class="edge">
<title>SlickModule&#45;&gt;AppModule</title>
<path fill="none" stroke="black" d="M164.33,-122.22C164.33,-122.22 164.33,-143.73 164.33,-143.73"/>
<polygon fill="black" stroke="black" points="160.83,-143.73 164.33,-153.73 167.83,-143.73 160.83,-143.73"/>
</g>
<!-- SlickComponent  -->
<g id="node7" class="node">
<title>SlickComponent </title>
<polygon fill="#fb8072" stroke="black" points="539.61,-190 426.39,-190 426.39,-154 539.61,-154 539.61,-190"/>
<text text-anchor="middle" x="483" y="-167.8" font-family="Times,serif" font-size="14.00">SlickComponent </text>
</g>
<!-- SlickModule&#45;&gt;SlickComponent  -->
<g id="edge6" class="edge">
<title>SlickModule&#45;&gt;SlickComponent </title>
<path fill="none" stroke="black" stroke-dasharray="5,2" d="M242.22,-113C322.27,-113 483,-113 483,-113 483,-113 483,-143.98 483,-143.98"/>
<polygon fill="black" stroke="black" points="479.5,-143.98 483,-153.98 486.5,-143.98 479.5,-143.98"/>
</g>
<!-- SlickItemDirective  -->
<g id="node8" class="node">
<title>SlickItemDirective </title>
<polygon fill="#fb8072" stroke="black" points="408.02,-190 281.98,-190 281.98,-154 408.02,-154 408.02,-190"/>
<text text-anchor="middle" x="345" y="-167.8" font-family="Times,serif" font-size="14.00">SlickItemDirective </text>
</g>
<!-- SlickModule&#45;&gt;SlickItemDirective  -->
<g id="edge7" class="edge">
<title>SlickModule&#45;&gt;SlickItemDirective </title>
<path fill="none" stroke="black" stroke-dasharray="5,2" d="M214.82,-122.22C214.82,-142.37 214.82,-172 214.82,-172 214.82,-172 271.82,-172 271.82,-172"/>
<polygon fill="black" stroke="black" points="271.82,-175.5 281.82,-172 271.82,-168.5 271.82,-175.5"/>
</g>
<!-- SlickComponent -->
<g id="node5" class="node">
<title>SlickComponent</title>
<polygon fill="#ffffb3" stroke="black" points="814.11,-190 703.89,-190 703.89,-154 814.11,-154 814.11,-190"/>
<text text-anchor="middle" x="759" y="-167.8" font-family="Times,serif" font-size="14.00">SlickComponent</text>
</g>
<!-- SlickComponent&#45;&gt;SlickModule -->
<g id="edge4" class="edge">
<title>SlickComponent&#45;&gt;SlickModule</title>
<path fill="none" stroke="black" d="M759,-153.75C759,-130.98 759,-95 759,-95 759,-95 252.49,-95 252.49,-95"/>
<polygon fill="black" stroke="black" points="252.49,-91.5 242.49,-95 252.49,-98.5 252.49,-91.5"/>
</g>
<!-- SlickItemDirective -->
<g id="node6" class="node">
<title>SlickItemDirective</title>
<polygon fill="#ffffb3" stroke="black" points="686.02,-190 563.98,-190 563.98,-154 686.02,-154 686.02,-190"/>
<text text-anchor="middle" x="625" y="-167.8" font-family="Times,serif" font-size="14.00">SlickItemDirective</text>
</g>
<!-- SlickItemDirective&#45;&gt;SlickModule -->
<g id="edge5" class="edge">
<title>SlickItemDirective&#45;&gt;SlickModule</title>
<path fill="none" stroke="black" d="M625,-153.78C625,-133.63 625,-104 625,-104 625,-104 252.49,-104 252.49,-104"/>
<polygon fill="black" stroke="black" points="252.49,-100.5 242.49,-104 252.49,-107.5 252.49,-100.5"/>
</g>
</g>
</svg>
